<svg width="72" height="72" viewBox="0 0 72 72" fill="none" xmlns="http://www.w3.org/2000/svg">
<path d="M48.0368 35.404C47.7395 35.1662 47.3828 34.968 47.0656 34.75C46.8476 34.4923 46.5701 34.3139 46.2332 34.195C44.1125 32.986 41.7143 32.2725 39.3359 32.2725C38.8404 32.2725 38.3845 32.4707 38.0278 32.8076L35.6097 35.2455L33.1719 32.8274C32.8349 32.4707 32.3592 32.2923 31.8637 32.2923C29.4655 32.2923 27.0277 33.0256 24.907 34.2545C24.6097 34.3536 24.3718 34.5319 24.1736 34.75C23.8367 34.968 23.4799 35.1662 23.1628 35.404C20.6853 37.3464 18.7826 40.1806 18.7826 43.4905V49.0996C18.7826 55.2834 23.8169 60.2978 30.0007 60.2978H41.2188C47.4026 60.2978 52.4368 55.2834 52.4368 49.0996V43.4905C52.417 40.1806 50.5143 37.3464 48.0368 35.404ZM39.9305 36.2166C40.9215 36.2959 41.9719 36.4941 42.9827 36.8707L40.8422 40.4581L38.2656 37.8815L39.9305 36.2166ZM32.9737 37.8815L30.3971 40.4581L28.2565 36.8707C29.2673 36.5139 30.3178 36.2959 31.3088 36.2166L32.9737 37.8815ZM48.6909 49.0996C48.6909 53.2618 45.3809 56.5519 41.2188 56.5519H30.0007C25.8187 56.5519 22.5286 53.2618 22.5286 49.0996V43.4905C22.5286 41.786 23.4997 40.141 25.0457 38.7734L28.4151 44.4419C29.0295 45.4924 30.4764 45.6707 31.3484 44.8185L35.6097 40.5176L39.8908 44.7987C40.7629 45.6509 42.1899 45.4725 42.8242 44.4221L46.1936 38.7536C47.7395 40.1212 48.7107 41.7662 48.7107 43.4707V49.0996H48.6909Z" fill="#F160E3"/>
<path d="M35.6097 28.5466C40.2277 28.5466 44.0332 24.7609 44.0332 20.1429C44.0332 15.5249 40.2476 11.7393 35.6097 11.7393C30.9917 11.7393 27.2061 15.5249 27.2061 20.1429C27.2061 24.7609 30.9718 28.5466 35.6097 28.5466ZM35.6097 15.4654C38.2061 15.4654 40.2872 17.5465 40.2872 20.1429C40.2872 22.7393 38.2061 24.8204 35.6097 24.8204C33.0133 24.8204 30.952 22.7393 30.952 20.1429C30.952 17.5465 32.9935 15.4654 35.6097 15.4654Z" fill="#F160E3"/>
<path d="M43.0819 47.2168H41.2188C38.7215 47.2168 38.7215 50.9628 41.2188 50.9628H43.0819C45.5594 50.9628 45.5594 47.2168 43.0819 47.2168Z" fill="#F160E3"/>
</svg>
